# xmcd
#
# Track frame offsets: 
#        150
#        19095
#        33267
#        54427
#        75637
#        91252
#        112442
#        131890
#        145620
#        159630
#        172395
#        196447
#
# Disc length: 2813 seconds
#
# Revision: 2
# Processed by: cddbd v1.5.2PL0 Copyright (c) Steve Scherf et al.
# Submitted via: ExactAudioCopy v0.95b4
#
DISCID=a80afb0c
DTITLE=Johnnie Johnson Band - Johnnie Be Back
DYEAR=1995
DGENRE=Blues
TTITLE0=Real Good Woman
TTITLE1=If you Love Me Like You Say
TTITLE2=Just To Be With You
TTITLE3=Rockinitis
TTITLE4=Baby Please
TTITLE5=Kansas City
TTITLE6=Tossin' and Turnin'
TTITLE7=I'm Mad
TTITLE8=She Called Me Out Of My Name
TTITLE9=I'm Goin' Fishin
TTITLE10=Hey Hey
TTITLE11=Johnnie and John
EXTD=
EXTT0=
EXTT1=
EXTT2=
EXTT3=
EXTT4=
EXTT5=
EXTT6=
EXTT7=
EXTT8=
EXTT9=
EXTT10=
EXTT11=
PLAYORDER=
